# xmcd
#
# Track frame offsets: 
#        150
#        21278
#        49945
#        68615
#        87538
#        107538
#        131538
#        164213
#        195973
#        216068
#        233693
#
# Disc length: 3579 seconds
#
# Revision: 0
# Processed by: cddbd v1.5.2PL0 Copyright (c) Steve Scherf et al.
# Submitted via: ExactAudioCopy v0.99pb3
#
DISCID=930df90b
DTITLE=Rory Gallagher - Tattoo
DYEAR=1900
DGENRE=Blues
TTITLE0=tattoo'd lady
TTITLE1=cradle rock
TTITLE2=20 20 vision
TTITLE3=they don't make them lik you anymore
TTITLE4=livin' like a trucker
TTITLE5=sleep on a clothes-line
TTITLE6=who's that coming?
TTITLE7=a million miles away
TTITLE8=admit it
TTITLE9=tucson, arizona
TTITLE10=just a little bit
EXTD=
EXTT0=
EXTT1=
EXTT2=
EXTT3=
EXTT4=
EXTT5=
EXTT6=
EXTT7=
EXTT8=
EXTT9=
EXTT10=
PLAYORDER=
